HIERARCHY
ROOT Hips
{
	OFFSET -0.179506 -22.333345 2.821913
	CHANNELS 6 Xposition Yposition Zposition Zrotation Yrotation Xrotation 
	JOINT LeftUpLeg
	{
		OFFSET 6.951974 -9.140623 -0.681533
		CHANNELS 3 Zrotation Yrotation Xrotation
		JOINT LeftLeg
		{
			OFFSET 3.427654 -37.519855 -0.449580
			CHANNELS 3 Zrotation Yrotation Xrotation
			JOINT LeftFoot
			{
				OFFSET -1.359570 -39.796059 -4.369333
				CHANNELS 3 Zrotation Yrotation Xrotation
				JOINT LeftToe
				{
					OFFSET 2.635814 -5.579078 11.928840
					CHANNELS 3 Zrotation Yrotation Xrotation
					End Site
					{
						OFFSET 0.000000 0.000000 0.000000
					}
				}
			}
		}
	}
	JOINT RightUpLeg
	{
		OFFSET -6.767048 -9.052170 -0.431982
		CHANNELS 3 Zrotation Yrotation Xrotation
		JOINT RightLeg
		{
			OFFSET -3.829005 -38.256897 -0.885003
			CHANNELS 3 Zrotation Yrotation Xrotation
			JOINT RightFoot
			{
				OFFSET 1.577377 -39.841461 -4.231180
				CHANNELS 3 Zrotation Yrotation Xrotation
				JOINT RightToe
				{
					OFFSET -2.537174 -4.814398 12.334795
					CHANNELS 3 Zrotation Yrotation Xrotation
					End Site
					{
						OFFSET 0.000000 0.000000 0.000000
					}
				}
			}
		}
	}
	JOINT Spine
	{
		OFFSET -0.253288 10.896323 -2.669631
		CHANNELS 3 Zrotation Yrotation Xrotation
		JOINT Spine1
		{
			OFFSET 0.548704 13.518043 0.109247
			CHANNELS 3 Zrotation Yrotation Xrotation
			JOINT Spine2
			{
				OFFSET 0.145701 5.292222 2.542457
				CHANNELS 3 Zrotation Yrotation Xrotation
				JOINT Neck
				{
					OFFSET -0.277840 21.387037 -4.285703
					CHANNELS 3 Zrotation Yrotation Xrotation
					JOINT Head
					{
						OFFSET 0.515184 6.496960 5.134897
						CHANNELS 3 Zrotation Yrotation Xrotation
						End Site
						{
							OFFSET 0.000000 0.000000 0.000000
						}
					}
				}
				JOINT LeftShoulder
				{
					OFFSET 7.884473 12.174932 -3.408961
					CHANNELS 3 Zrotation Yrotation Xrotation
					JOINT LeftArm
					{
						OFFSET 9.097692 3.046888 -0.886815
						CHANNELS 3 Zrotation Yrotation Xrotation
						JOINT LeftForeArm
						{
							OFFSET 25.961220 -1.277207 -2.745643
							CHANNELS 3 Zrotation Yrotation Xrotation
							JOINT LeftHand
							{
								OFFSET 24.923361 0.898606 -0.117091
								CHANNELS 3 Zrotation Yrotation Xrotation
								End Site
								{
									OFFSET 0.000000 0.000000 0.000000
								}
							}
						}
					}
				}
				JOINT RightShoulder
				{
					OFFSET -8.175920 11.883285 -3.861528
					CHANNELS 3 Zrotation Yrotation Xrotation
					JOINT RightArm
					{
						OFFSET -9.601238 3.255117 -0.914307
						CHANNELS 3 Zrotation Yrotation Xrotation
						JOINT RightForeArm
						{
							OFFSET -25.374195 -1.332924 -2.140099
							CHANNELS 3 Zrotation Yrotation Xrotation
							JOINT RightHand
							{
								OFFSET -25.529810 0.777228 -0.555919
								CHANNELS 3 Zrotation Yrotation Xrotation
								End Site
								{
									OFFSET 0.000000 0.000000 0.000000
								}
							}
						}
					}
				}
			}
		}
	}
}
MOTION
Frames: 12
Frame Time: 0.033333
1.165924 -0.815759 99.111687 177.873779 -0.681718 85.061902 4.559723 2.088679 10.897238 -4.280173 -1.430668 -4.770578 3.985805 9.242443 -6.920332 nan nan nan -4.596802 -1.656076 10.168958 4.438246 -0.548967 -4.672142 6.670565 -3.384706 -2.392644 nan nan nan -0.671978 1.040099 3.949848 0.780423 -2.380852 3.898984 0.974797 -0.662674 2.663608 -1.591584 3.033308 8.673793 0.088746 -1.109701 14.150315 -26.174162 1.442249 6.964899 -60.382555 -9.500632 9.709830 9.875014 -21.397541 5.447113 -4.998486 -15.671615 -8.508814 25.749410 3.538730 7.052464 59.683991 7.603056 12.337265 -13.301610 17.760365 -8.972296 4.059437 10.077594 -15.808164 
1.154689 -0.829931 99.113945 177.857476 -0.696009 85.070561 4.515197 2.056910 10.848654 -4.254488 -1.389586 -4.726219 3.986122 9.253239 -6.906457 nan nan nan -4.639532 -1.642360 10.114191 4.456093 -0.526322 -4.618909 6.743125 -3.371418 -2.374596 nan nan nan -0.649761 1.000916 3.920617 0.789662 -2.376025 3.838455 0.913972 -0.621582 2.744541 -1.646806 2.976049 9.069978 0.042275 -1.213857 14.707981 -26.154993 1.501021 6.940536 -60.408820 -9.565570 9.814069 9.906751 -21.360176 5.366309 -4.855292 -15.687701 -8.528067 25.755305 3.451928 7.026382 59.690872 7.665945 12.405837 -13.318553 17.805853 -8.973887 3.989239 10.065673 -15.817814 
1.149098 -0.833357 99.108849 177.824247 -0.695192 85.065282 4.490885 1.965794 10.862062 -4.249383 -1.311322 -4.751174 4.029834 9.298265 -6.868163 nan nan nan -4.653372 -1.653210 10.091280 4.433560 -0.492219 -4.575012 6.774393 -3.335484 -2.346617 nan nan nan -0.592765 0.995728 3.872669 0.771002 -2.377068 3.798567 0.878171 -0.630200 2.854900 -1.669775 2.917542 9.493096 -0.108031 -1.209222 15.166921 -26.134464 1.557530 6.920474 -60.439505 -9.610050 9.901688 9.938416 -21.342470 5.319958 -4.759047 -15.769987 -8.529032 25.692524 3.418160 7.000597 59.766183 7.754599 12.498188 -13.335896 17.793761 -9.007903 3.951898 10.137459 -15.876568 
1.163595 -0.845062 99.111053 177.833939 -0.689495 85.004081 4.514397 1.882323 10.906918 -4.286203 -1.269710 -4.722311 4.005608 9.303875 -6.894282 nan nan nan -4.630029 -1.678320 10.175919 4.401874 -0.467770 -4.616686 6.771468 -3.349675 -2.312645 nan nan nan -0.609431 1.009485 3.847911 0.786503 -2.401462 3.881821 0.857809 -0.633431 2.872866 -1.649960 2.872460 9.960969 -0.220132 -1.186519 15.591819 -26.089697 1.619232 6.941058 -60.451238 -9.707587 9.929425 9.919264 -21.380411 5.347060 -4.778468 -15.835691 -8.459466 25.684826 3.415333 6.999300 59.808070 7.838073 12.566699 -13.345921 17.763982 -9.046640 3.973760 10.198814 -15.848074 
1.184646 -0.849104 99.115189 177.873633 -0.656155 84.918827 4.586321 1.874930 10.988286 -4.311944 -1.282601 -4.700795 3.917851 9.270874 -6.934519 nan nan nan -4.568614 -1.699028 10.330900 4.388883 -0.424952 -4.711404 6.743782 -3.366341 -2.294741 nan nan nan -0.635203 1.030318 3.817338 0.835890 -2.409748 4.005319 0.844302 -0.657711 2.888451 -1.587755 2.770693 10.460240 -0.302051 -1.217558 15.977639 -26.044627 1.671289 6.970250 -60.449871 -9.849106 9.955704 9.827805 -21.390966 5.419751 -4.785809 -15.815182 -8.409973 25.682900 3.371650 6.950430 59.808089 7.919346 12.646203 -13.292674 17.716950 -8.953924 4.005277 10.105478 -15.638706 
1.181328 -0.855281 99.106499 177.885347 -0.645471 84.895658 4.612871 1.856746 11.020413 -4.341095 -1.298032 -4.720385 3.917097 9.273209 -6.934592 nan nan nan -4.586549 -1.706032 10.350312 4.437119 -0.406535 -4.705281 6.748803 -3.349478 -2.295228 nan nan nan -0.607931 0.999234 3.777906 0.822459 -2.385406 3.996727 0.810305 -0.665351 2.950106 -1.565846 2.675951 10.879055 -0.389184 -1.199919 16.615355 -26.025787 1.727375 7.003293 -60.423910 -9.942522 10.050095 9.786417 -21.372055 5.560255 -4.627381 -15.814985 -8.449129 25.658233 3.312774 6.965292 59.826095 8.015786 12.752895 -13.286176 17.701565 -8.881177 3.975121 10.068653 -15.680876 
1.174207 -0.878437 99.094086 177.868260 -0.647712 84.914113 4.616718 1.831518 10.990236 -4.360396 -1.268455 -4.734648 4.007788 9.267480 -6.928332 nan nan nan -4.606179 -1.687048 10.275925 4.466975 -0.407296 -4.634467 6.775296 -3.325570 -2.293742 nan nan nan -0.574492 0.968616 3.764702 0.781822 -2.349643 3.909674 0.772628 -0.654749 3.004619 -1.577454 2.673678 11.180306 -0.431982 -1.158524 17.461192 -25.967846 1.779218 7.043482 -60.429196 -10.038469 10.152289 9.766051 -21.295910 5.640685 -4.484438 -15.833307 -8.588052 25.612982 3.256836 7.002913 59.900130 8.110504 12.860525 -13.332439 17.658933 -8.960212 3.983042 10.230940 -16.015779 
1.185856 -0.885840 99.099762 177.846972 -0.628982 84.865871 4.655637 1.881725 11.042488 -4.351210 -1.254173 -4.748585 4.010261 9.216252 -6.906141 nan nan nan -4.568154 -1.693149 10.294573 4.445897 -0.401760 -4.586327 6.773068 -3.273862 -2.256600 nan nan nan -0.582564 0.964652 3.769266 0.810268 -2.344154 3.907521 0.748774 -0.620601 3.031531 -1.567030 2.698337 11.648446 -0.457251 -1.129813 17.997730 -25.964812 1.824493 7.010609 -60.387377 -10.084925 10.262996 9.719499 -21.271635 5.605697 -4.508005 -15.779286 -8.557750 25.589491 3.242199 6.971689 59.942684 8.118617 12.954108 -13.348311 17.611192 -9.112687 4.023040 10.418051 -16.121737 
1.193526 -0.895499 99.105675 177.863371 -0.627468 84.828833 4.671803 1.942311 11.064413 -4.352181 -1.298224 -4.742485 4.015135 9.173225 -6.888490 nan nan nan -4.543236 -1.716906 10.323754 4.414085 -0.443919 -4.572137 6.786864 -3.223232 -2.276523 nan nan nan -0.614340 0.959958 3.771320 0.852065 -2.349944 3.878893 0.727571 -0.598667 3.053953 -1.585796 2.711042 12.199543 -0.460535 -1.069766 18.549748 -25.946944 1.865136 7.017775 -60.405671 -10.144710 10.374520 9.748131 -21.226663 5.596424 -4.490422 -15.799240 -8.531578 25.589711 3.239017 7.009902 59.970875 8.122604 13.032030 -13.417562 17.584635 -9.203258 3.987228 10.534087 -16.170516 
1.189784 -0.931063 99.103409 177.876523 -0.666875 84.855970 4.618259 1.948619 10.978094 -4.361887 -1.290857 -4.695484 4.102546 9.175656 -6.876144 nan nan nan -4.593370 -1.706485 10.229971 4.443075 -0.533169 -4.485253 6.793998 -3.247009 -2.350155 nan nan nan -0.672265 0.969951 3.773752 0.853486 -2.346010 3.763473 0.736933 -0.617424 3.070167 -1.595514 2.685188 12.727171 -0.473956 -1.021112 19.236774 -25.895944 1.925025 7.071004 -60.470052 -10.218944 10.477953 9.776853 -21.152134 5.667945 -4.419748 -15.876724 -8.604039 25.617841 3.164089 7.063657 59.957107 8.200184 13.087615 -13.455520 17.578554 -9.238965 3.904530 10.553488 -16.257876 
1.178978 -0.969002 99.093430 177.876480 -0.731663 84.939872 4.507515 1.851021 10.868074 -4.347920 -1.230432 -4.720457 4.137188 9.208657 -6.838468 nan nan nan -4.671756 -1.648049 10.089816 4.469948 -0.579059 -4.446765 6.811381 -3.310724 -2.400091 nan nan nan -0.741354 1.019806 3.650428 0.836792 -2.320147 3.752112 0.763391 -0.658689 3.114789 -1.569841 2.596664 13.317866 -0.573403 -1.130137 19.875050 -25.840564 1.962340 7.071169 -60.522216 -10.338367 10.599460 9.765012 -21.027375 5.699438 -4.467231 -15.912081 -8.603212 25.598489 3.055309 7.051136 59.971921 8.353482 13.152521 -13.436425 17.527432 -9.255165 3.882677 10.429375 -16.218319 
1.172081 -0.988981 99.087509 177.899148 -0.776779 84.971801 4.442641 1.781147 10.824230 -4.352554 -1.188858 -4.729326 4.179706 9.224599 -6.838581 nan nan nan -4.733391 -1.628461 10.048600 4.484541 -0.589575 -4.474123 6.808495 -3.318599 -2.397000 nan nan nan -0.773932 1.052818 3.538668 0.815816 -2.317209 3.776195 0.753816 -0.699388 3.173454 -1.568832 2.568555 13.886987 -0.665649 -1.097796 20.511340 -25.768347 2.013762 7.098182 -60.560876 -10.470008 10.686792 9.742311 -20.946732 5.701166 -4.433887 -15.934281 -8.634752 25.544065 3.004094 7.056787 60.037160 8.506973 13.237928 -13.410334 17.404444 -9.344862 3.860353 10.399349 -16.309207 
